# xmcd
#
# Track frame offsets:
#	150
#	15300
#	33450
#	49725
#	60450
#	92850
#	127350
#	164550
#	176475
#	206475
#	230325
#	238425
#	271500
#	288225
#
# Disc length: 4596 seconds
#
# Revision: 1
# Processed by: cddbd v1.5.2PL0 Copyright (c) Steve Scherf et al.
# Submitted via: audiograbber 1.83.01
#
DISCID=c311f20e
DTITLE=Various Artist - Summer moments CD1
DYEAR=2010
DGENRE=Classical
TTITLE0=Siegfried Behrend, I Musici - Vivaldi: 2. Andante largo
TTITLE1=Kathleen Battle, Timothy Farrell, Philharmonia Orchestra, Carlo Maria G
TTITLE1=iulini - Faure: 4. Pie Jesu
TTITLE2=Jean-Yves Thibaudet - Satie: Gymnopedie No.1
TTITLE3=Daniel Hope, Sebastian Knauer - Mendelssohn: 2. Auf den Flügeln des Ges
TTITLE3=anges
TTITLE4=Radio-Symphonie-Orchester Berlin, Riccardo Chailly - Puccini: Crisantem
TTITLE4=i
TTITLE5=L'Orchestre de la Suisse Romande, Ernest Ansermet - Prokofiev: 6. Romeo
TTITLE5=and Juliet
TTITLE6=Vladimir Ashkenazy, Chicago Symphony Orchestra, Georg Solti - Beethoven
TTITLE6=: 2. Adagio un poco mosso
TTITLE7=Lucia Popp, Brigitte Fassbaender, Tom Krause, Vienna Haydn Orchestra, I
TTITLE7=stván Kertész - Mozert: Cosi fan tutte "Soave sia il vento"
TTITLE8=Berliner Philharmoniker, Rafael Kubelik - 3. Allegretto grazioso - Dvor
TTITLE8=ak: Molto vivace
TTITLE9=Weller Quartet, Dietfried Gurtler - Schubert: Strygekvintet 2. Adagio (
TTITLE9=excerpt)
TTITLE10=Pepe Romero - Yepes: Jeux interdits (Romance)
TTITLE11=Jack Brymer, London Symphony Orchestra, Colin Davis - Mozart: 2. Adagi
TTITLE11=o
TTITLE12=Wiener Philharmoniker, André Previn - Strauss R: Capriccio op. 85 Mond
TTITLE12=scheinmusik
TTITLE13=Tamás Vásáry, London Symphony Orchestra, Yuri Ahronovitch - Rachmanino
TTITLE13=v: Klaverkoncert 2. Adagio sostenuto
EXTD=
EXTT0=
EXTT1=
EXTT2=
EXTT3=
EXTT4=
EXTT5=
EXTT6=
EXTT7=
EXTT8=
EXTT9=
EXTT10=
EXTT11=
EXTT12=
EXTT13=
PLAYORDER=
